<svg width="800" height="600" viewBox="0 0 800 600" fill="none" xmlns="http://www.w3.org/2000/svg" role="img" aria-labelledby="t d">
  <title id="t">Handmade crochet basket</title>
  <desc id="d">Illustrated crochet basket in camel yarn.</desc>
  <defs>
    <linearGradient id="bg" x1="0" y1="0" x2="1" y2="1">
      <stop offset="0%" stop-color="#151922"/>
      <stop offset="100%" stop-color="#0B0D12"/>
    </linearGradient>
    <radialGradient id="glow" cx="0.5" cy="0.42" r="0.55">
      <stop offset="0%" stop-color="#C4A484" stop-opacity="0.30"/>
      <stop offset="100%" stop-color="#C4A484" stop-opacity="0"/>
    </radialGradient>
    <pattern id="st" width="16" height="16" patternUnits="userSpaceOnUse">
      <path d="M4 4 L8 10 L12 4" fill="none" stroke="rgba(0,0,0,0.28)" stroke-width="2" stroke-linecap="round" stroke-linejoin="round"/>
      <path d="M-4 12 L0 18 L4 12 M12 12 L16 18 L20 12" fill="none" stroke="rgba(0,0,0,0.28)" stroke-width="2" stroke-linecap="round" stroke-linejoin="round"/>
    </pattern>
  </defs>
  <rect width="800" height="600" fill="url(#bg)"/>
  <rect width="800" height="600" fill="url(#glow)"/>

  <path d="M300 240 H500 L484 424 Q481 446 459 446 H341 Q319 446 316 424 Z" fill="#9C8065"/>
  <path d="M300 240 H500 L484 418 Q481 440 459 440 H341 Q319 440 316 418 Z" fill="#C4A484"/>
  <path d="M312 296 H488" stroke="#4ECDC4" stroke-width="15" stroke-linecap="round" opacity="0.85"/>
  <path d="M316 348 H484" stroke="#4ECDC4" stroke-width="15" stroke-linecap="round" opacity="0.85"/>
  <path d="M320 400 H480" stroke="#4ECDC4" stroke-width="15" stroke-linecap="round" opacity="0.85"/>
  <path d="M300 240 H500 L484 418 Q481 440 459 440 H341 Q319 440 316 418 Z" fill="url(#st)"/>
  <ellipse cx="400" cy="240" rx="100" ry="22" fill="#F4E9D8"/>
  <ellipse cx="400" cy="238" rx="80" ry="13" fill="#9C8065" opacity="0.6"/>
</svg>
