<svg width="800" height="600" viewBox="0 0 800 600" fill="none" xmlns="http://www.w3.org/2000/svg" role="img" aria-labelledby="t d">
  <title id="t">Handmade crochet basket</title><desc id="d">Illustrated crochet basket.</desc>
  <defs>
    <linearGradient id="bg" x1="0" y1="0" x2="1" y2="1">
      <stop offset="0%" stop-color="#FFFFFF"/><stop offset="100%" stop-color="#FBF7FD"/>
    </linearGradient>
    <radialGradient id="glow" cx="0.5" cy="0.42" r="0.55">
      <stop offset="0%" stop-color="#FFD60A" stop-opacity="0.22"/>
      <stop offset="100%" stop-color="#FFD60A" stop-opacity="0"/>
    </radialGradient>
    <pattern id="st" width="16" height="16" patternUnits="userSpaceOnUse">
      <path d="M4 4 L8 10 L12 4" fill="none" stroke="rgba(0,0,0,0.13)" stroke-width="2" stroke-linecap="round" stroke-linejoin="round"/>
    </pattern>
  </defs>
  <rect width="800" height="600" fill="url(#bg)"/><rect width="800" height="600" fill="url(#glow)"/>

  <path d="M300 240 H500 L484 424 Q481 446 459 446 H341 Q319 446 316 424 Z" fill="#E0B341"/>
  <path d="M300 240 H500 L484 418 Q481 440 459 440 H341 Q319 440 316 418 Z" fill="#FFD60A"/>
  <path d="M312 296 H488 M316 348 H484 M320 400 H480" stroke="#FFFFFF" stroke-width="15" stroke-linecap="round" opacity="0.75"/>
  <path d="M300 240 H500 L484 418 Q481 440 459 440 H341 Q319 440 316 418 Z" fill="url(#st)"/>
  <ellipse cx="400" cy="240" rx="100" ry="22" fill="#FFFFFF"/>
  <ellipse cx="400" cy="238" rx="80" ry="13" fill="#E0B341" opacity="0.5"/>
</svg>
