<svg width="800" height="600" viewBox="0 0 800 600" fill="none" xmlns="http://www.w3.org/2000/svg" role="img" aria-labelledby="t d">
  <title id="t">Handmade crochet coasters</title>
  <desc id="d">Illustrated crochet coaster set in rose yarn.</desc>
  <defs>
    <linearGradient id="bg" x1="0" y1="0" x2="1" y2="1">
      <stop offset="0%" stop-color="#151922"/>
      <stop offset="100%" stop-color="#0B0D12"/>
    </linearGradient>
    <radialGradient id="glow" cx="0.5" cy="0.42" r="0.55">
      <stop offset="0%" stop-color="#FF8FA3" stop-opacity="0.30"/>
      <stop offset="100%" stop-color="#FF8FA3" stop-opacity="0"/>
    </radialGradient>
    <pattern id="st" width="16" height="16" patternUnits="userSpaceOnUse">
      <path d="M4 4 L8 10 L12 4" fill="none" stroke="rgba(0,0,0,0.28)" stroke-width="2" stroke-linecap="round" stroke-linejoin="round"/>
      <path d="M-4 12 L0 18 L4 12 M12 12 L16 18 L20 12" fill="none" stroke="rgba(0,0,0,0.28)" stroke-width="2" stroke-linecap="round" stroke-linejoin="round"/>
    </pattern>
  </defs>
  <rect width="800" height="600" fill="url(#bg)"/>
  <rect width="800" height="600" fill="url(#glow)"/>

  <g>
    <circle cx="538.0" cy="300.0" r="15" fill="#C4A484"/>
    <circle cx="529.7" cy="347.2" r="15" fill="#C4A484"/>
    <circle cx="505.7" cy="388.7" r="15" fill="#C4A484"/>
    <circle cx="469.0" cy="419.5" r="15" fill="#C4A484"/>
    <circle cx="424.0" cy="435.9" r="15" fill="#C4A484"/>
    <circle cx="376.0" cy="435.9" r="15" fill="#C4A484"/>
    <circle cx="331.0" cy="419.5" r="15" fill="#C4A484"/>
    <circle cx="294.3" cy="388.7" r="15" fill="#C4A484"/>
    <circle cx="270.3" cy="347.2" r="15" fill="#C4A484"/>
    <circle cx="262.0" cy="300.0" r="15" fill="#C4A484"/>
    <circle cx="270.3" cy="252.8" r="15" fill="#C4A484"/>
    <circle cx="294.3" cy="211.3" r="15" fill="#C4A484"/>
    <circle cx="331.0" cy="180.5" r="15" fill="#C4A484"/>
    <circle cx="376.0" cy="164.1" r="15" fill="#C4A484"/>
    <circle cx="424.0" cy="164.1" r="15" fill="#C4A484"/>
    <circle cx="469.0" cy="180.5" r="15" fill="#C4A484"/>
    <circle cx="505.7" cy="211.3" r="15" fill="#C4A484"/>
    <circle cx="529.7" cy="252.8" r="15" fill="#C4A484"/>
  </g>
  <circle cx="400" cy="300" r="138" fill="#D96A80"/>
  <circle cx="400" cy="300" r="134" fill="#FF8FA3"/>
  <circle cx="400" cy="300" r="100" fill="#F4E9D8"/>
  <circle cx="400" cy="300" r="68" fill="#FF8FA3"/>
  <circle cx="400" cy="300" r="36" fill="#F4E9D8"/>
  <circle cx="400" cy="300" r="134" fill="url(#st)"/>
</svg>
