<svg width="800" height="800" viewBox="0 0 800 800" fill="none" xmlns="http://www.w3.org/2000/svg" role="img" aria-labelledby="title desc">
  <title id="title">Handmade bag placeholder</title>
  <desc id="desc">Illustrated peach handmade bag with stitched details.</desc>
  <rect width="800" height="800" fill="#FFF8F4"/>
  <circle cx="648" cy="146" r="170" fill="#FFD1DC"/>
  <circle cx="168" cy="694" r="210" fill="#FFD9CA"/>
  <path d="M250 230C286 144 376 116 448 168C492 202 520 258 520 330" stroke="#624533" stroke-width="34" stroke-linecap="round"/>
  <path d="M184 306H600L560 660C556 696 526 724 490 724H258C222 724 192 696 188 660L184 306Z" fill="#F79889"/>
  <path d="M228 358H556L528 640C526 662 508 678 486 678H270C248 678 230 662 228 640V358Z" fill="#FFE9EF"/>
  <path d="M294 452C350 408 438 408 494 452" stroke="#DF5D81" stroke-width="18" stroke-linecap="round"/>
  <path d="M294 532C356 582 432 582 494 532" stroke="#DF5D81" stroke-width="18" stroke-linecap="round"/>
  <path d="M118 198C214 148 306 146 420 188" stroke="#DF5D81" stroke-width="10" stroke-linecap="round" stroke-dasharray="2 26"/>
</svg>
