<svg width="800" height="600" viewBox="0 0 800 600" fill="none" xmlns="http://www.w3.org/2000/svg" role="img" aria-labelledby="t d">
  <title id="t">Handmade crochet accessories</title>
  <desc id="d">Illustrated crochet accessories in mixed yarn colours.</desc>
  <defs>
    <linearGradient id="bg" x1="0" y1="0" x2="1" y2="1">
      <stop offset="0%" stop-color="#151922"/>
      <stop offset="100%" stop-color="#0B0D12"/>
    </linearGradient>
    <radialGradient id="glow" cx="0.5" cy="0.42" r="0.55">
      <stop offset="0%" stop-color="#A78BFA" stop-opacity="0.30"/>
      <stop offset="100%" stop-color="#A78BFA" stop-opacity="0"/>
    </radialGradient>
    <pattern id="st" width="16" height="16" patternUnits="userSpaceOnUse">
      <path d="M4 4 L8 10 L12 4" fill="none" stroke="rgba(0,0,0,0.28)" stroke-width="2" stroke-linecap="round" stroke-linejoin="round"/>
      <path d="M-4 12 L0 18 L4 12 M12 12 L16 18 L20 12" fill="none" stroke="rgba(0,0,0,0.28)" stroke-width="2" stroke-linecap="round" stroke-linejoin="round"/>
    </pattern>
  </defs>
  <rect width="800" height="600" fill="url(#bg)"/>
  <rect width="800" height="600" fill="url(#glow)"/>

  <circle cx="272" cy="300" r="76" fill="#7C5FD6"/>
  <circle cx="272" cy="300" r="72" fill="#A78BFA"/>
  <circle cx="272" cy="300" r="30" fill="#0F131A"/>
  <circle cx="272" cy="300" r="72" fill="url(#st)"/>
  <rect x="376" y="222" width="132" height="156" rx="42" fill="#2FA49C"/>
  <rect x="376" y="222" width="132" height="150" rx="42" fill="#4ECDC4"/>
  <rect x="376" y="222" width="132" height="150" rx="42" fill="url(#st)"/>
  <path d="M376 262 v-2 a42 42 0 0 1 42 -38 h48 a42 42 0 0 1 42 38 v2 Z" fill="#F4E9D8"/>
  <path d="M556 236 q34 12 34 54 q0 44 -34 56" fill="none" stroke="#FFB627" stroke-width="17" stroke-linecap="round"/>
  <circle cx="556" cy="372" r="26" fill="#FFB627"/>
  <circle cx="556" cy="372" r="26" fill="url(#st)"/>
</svg>
